<svg width="120" height="110" viewBox="0 0 120 110" fill="none" xmlns="http://www.w3.org/2000/svg">
<path fill-rule="evenodd" clip-rule="evenodd" d="M6.92272 0.366158C4.49573 1.10757 2.16756 3.06627 1.0062 5.34404C-0.0552345 7.42622 -0.0814452 8.40912 0.0627004 40.7176L0.211762 73.9494L1.78645 76.0146C4.10806 79.06 6.89979 80.1205 12.6334 80.1347L17.411 80.1467V81.9716C17.411 87.8783 12.8409 98.9268 8.14741 104.367C6.63552 106.12 5.39882 107.761 5.39882 108.017C5.39882 108.271 5.80286 108.884 6.29645 109.378C7.37645 110.458 8.25006 110.283 14.9539 107.641C28.0603 102.475 38.7254 94.4324 44.8063 85.1306C46.2554 82.9135 47.4413 80.8849 47.4413 80.6231C47.4413 80.3576 61.7723 80.1413 79.7922 80.1347C116.18 80.121 114.984 80.2494 118.212 76.0146L119.787 73.9494L119.936 40.7176C120.081 8.18238 120.061 7.43988 118.97 5.29815C118.357 4.09561 116.833 2.43468 115.585 1.60804L113.315 0.105L60.8583 0.00993122C32.0073 -0.0425193 7.73627 0.118111 6.92272 0.366158ZM114.099 6.26029L115.692 8.0447V39.6992C115.692 63.0773 115.522 71.7279 115.04 72.7862C113.659 75.8196 114.195 75.7758 78.2923 75.7758H45.2065L44.2761 77.4952C40.044 85.318 34.9061 90.9985 27.6 95.9316C24.0815 98.3077 16.3069 102.547 15.4688 102.547C15.287 102.547 15.6463 101.724 16.2676 100.718C18.8917 96.4703 21.2379 88.2503 22.0116 80.5958C22.4697 76.0676 22.022 75.7758 14.6149 75.7758C7.98743 75.7758 6.04693 75.1749 4.95929 72.7862C4.47716 71.7284 4.30681 63.0921 4.30681 39.7642C4.30681 8.32171 4.31227 8.16763 5.47417 6.68973C6.11627 5.87292 7.16078 4.99274 7.7947 4.73376C8.42916 4.47533 32.2481 4.31142 60.7267 4.36988L112.506 4.47588L114.099 6.26029ZM65.4562 29.267C59.187 31.324 56.3969 35.4916 56.8217 42.1649C57.104 46.603 58.8086 49.2747 62.7147 51.4022C68.0863 54.3274 74.5101 53.2675 78.4211 48.8103C80.6347 46.2877 81.4651 43.5537 81.1872 39.7073C80.7548 33.7247 76.2524 29.4391 69.9641 29.0249C68.2376 28.9107 66.2086 29.02 65.4562 29.267ZM91.1251 30.2477C89.1715 31.2546 87.5531 32.62 86.484 34.1629C84.9803 36.333 84.8427 36.9138 84.8427 41.082C84.8427 45.2578 84.9776 45.8244 86.4857 47.971C90.0735 53.079 97.3976 54.5388 103.579 51.3781L106.683 49.791L106.839 44.4804L106.995 39.1697H101.789H96.5819V41.3552V43.5406H99.0389C101.477 43.5406 101.496 43.5548 101.496 45.431C101.496 47.1701 101.317 47.375 99.26 47.9913C92.7391 49.9467 87.4466 42.6205 91.2747 36.9362C93.5302 33.587 96.8418 32.8407 100.698 34.812L102.861 35.9173L104.348 34.129C105.166 33.145 105.841 32.2009 105.849 32.031C105.857 31.8611 104.846 31.1497 103.602 30.4498C102.088 29.5986 100.149 29.0998 97.7328 28.9397C94.5747 28.731 93.7508 28.8943 91.1251 30.2477ZM13.5889 41.082V52.8287L20.0045 52.8255C29.3598 52.8211 32.3344 51.7114 33.1769 47.9115C33.7819 45.1835 32.9437 42.5807 31.0988 41.4579L29.5399 40.5094L30.8465 38.9894C32.3846 37.2001 32.5959 34.0356 31.3008 32.1856C29.6535 29.8313 27.7621 29.3353 20.4413 29.3353H13.5889V41.082ZM37.0672 41.082V52.8287H45.5303H53.9934V50.3701V47.9115H48.2603H42.5272V38.6234V29.3353H39.7972H37.0672V41.082ZM26.1471 34.7989C27.4635 36.1161 27.505 36.6401 26.3813 37.765C25.779 38.3671 24.4757 38.6234 22.0132 38.6234H18.503V36.5292C18.503 35.3769 18.6668 34.2705 18.8672 34.0706C19.067 33.87 20.5412 33.7061 22.1432 33.7061C24.3272 33.7061 25.328 33.9793 26.1471 34.7989ZM72.0629 34.5524C77.5535 37.3935 76.8721 45.967 71.0075 47.8366C69.0244 48.4693 68.3681 48.466 66.6645 47.8175C61.3295 45.7856 60.5422 37.6367 65.3902 34.6262C67.2105 33.4952 69.9619 33.4652 72.0629 34.5524ZM27.1173 43.8449C28.4528 44.7803 28.6914 46.2396 27.6759 47.2559C27.2784 47.6536 25.3461 47.9115 22.7618 47.9115H18.503V45.4529V42.9943H22.2033C24.669 42.9943 26.3092 43.2784 27.1173 43.8449Z" fill="#199AE2"/>
</svg>
