<svg width="115" height="114" viewBox="0 0 115 114" fill="none" xmlns="http://www.w3.org/2000/svg">
<path fill-rule="evenodd" clip-rule="evenodd" d="M8.64104 0.369562C4.55644 1.46035 1.44862 4.57348 0.378847 8.64601C-0.126282 10.5688 -0.126282 94.5996 0.378847 96.5224C1.4612 100.643 4.58159 103.737 8.73717 104.81C9.85187 105.098 15.446 105.142 51.1182 105.142H92.2153L95.8229 108.675C99.8406 112.61 101.059 113.405 103.783 113.868C110.165 114.953 115.949 109.16 114.832 102.803C114.277 99.6431 114.304 99.6747 101.492 86.9376C93.5724 79.0636 89.5617 75.2284 89.0837 75.0721C88.0025 74.7182 87.2992 75.1046 85.1114 77.2561L83.145 79.1896L81.9906 78.0452L80.8363 76.9005L81.6211 75.9331C89.1318 66.6747 90.613 53.7409 85.4025 42.9161C82.4505 36.7836 76.8312 31.2201 70.6208 28.2811C68.2627 27.1651 66.4405 26.5282 65.6054 26.5282C64.1648 26.5282 63.1202 28.3481 63.7956 29.681C64.1123 30.3061 64.5053 30.5531 66.4142 31.3252C70.7506 33.0792 73.159 34.6238 76.0921 37.5321C84.2429 45.6139 86.322 57.7179 81.3352 68.0543C76.3495 78.3883 65.1425 84.487 53.7184 83.0831C40.1464 81.4151 29.9164 69.9943 29.9164 56.5106C29.9164 52.282 30.756 48.66 32.631 44.7988C34.5655 40.8154 37.2557 37.5684 40.8096 34.9278C42.5965 33.6001 46.2838 31.6541 47.9515 31.1586C48.4319 31.0161 49.1188 30.6273 49.4779 30.2945C50.73 29.1347 50.149 27.0435 48.4575 26.6224C47.1555 26.2984 41.498 28.855 38.3911 31.1713C30.3656 37.1551 25.8857 45.5219 25.4954 55.2566C25.0089 67.3854 31.6048 78.6536 42.4099 84.1532C46.1518 86.0577 49.4083 87.0596 53.3873 87.5304C61.5543 88.4969 70.1691 86.0408 76.5985 80.9131L77.5742 80.135L78.7287 81.2794L79.8829 82.4241L77.9329 84.3739C75.8816 86.4247 75.4192 87.1953 75.651 88.176C75.7412 88.5584 77.9419 90.9168 81.7687 94.7328L87.7453 100.692L48.6675 100.634L9.58999 100.576L8.54581 100.098C7.21101 99.4859 5.7484 98.0357 5.13142 96.7122L4.64875 95.6768L4.59013 58.0961L4.53128 20.5153H57.5377H110.544L110.603 55.2515L110.661 89.9879L111.234 90.5565C111.55 90.8694 112.168 91.1832 112.607 91.254C113.28 91.362 113.527 91.2756 114.167 90.7086L114.928 90.0345L114.987 50.0971C115.028 22.6755 114.972 9.8025 114.809 9.01948C113.948 4.8846 110.599 1.45634 106.348 0.358427C104.47 -0.126615 10.4587 -0.115925 8.64104 0.369562ZM106.539 5.07078C107.876 5.68387 109.339 7.13521 109.95 8.45627C110.353 9.32926 110.441 10.0065 110.509 12.7764L110.59 16.0613H57.5631H4.53645V13.2016C4.53645 11.3623 4.65122 9.96396 4.85785 9.28272C5.49303 7.19022 7.03649 5.60281 9.13899 4.87992C10.1948 4.51692 13.1782 4.49621 57.8793 4.54275L105.495 4.59219L106.539 5.07078ZM13.6328 8.24627C12.7942 8.60237 12.2953 9.37246 12.2953 10.3116C12.2953 11.0407 12.431 11.3276 13.0239 11.8527C13.4808 12.2576 14.0007 12.4981 14.4189 12.4981C14.8371 12.4981 15.3571 12.2576 15.8139 11.8527C16.4114 11.3235 16.5425 11.0429 16.5425 10.2938C16.5425 8.80435 14.9528 7.68573 13.6328 8.24627ZM22.6169 8.24627C21.7782 8.60237 21.2794 9.37246 21.2794 10.3116C21.2794 11.0407 21.415 11.3276 22.008 11.8527C22.4648 12.2576 22.9848 12.4981 23.403 12.4981C23.8212 12.4981 24.3412 12.2576 24.798 11.8527C25.3954 11.3235 25.5266 11.0429 25.5266 10.2938C25.5266 8.80435 23.9369 7.68573 22.6169 8.24627ZM31.601 8.24627C30.7623 8.60237 30.2634 9.37246 30.2634 10.3116C30.2634 11.0407 30.3991 11.3276 30.9921 11.8527C31.4489 12.2576 31.9688 12.4981 32.3871 12.4981C32.8053 12.4981 33.3252 12.2576 33.7821 11.8527C34.3795 11.3235 34.5107 11.0429 34.5107 10.2938C34.5107 8.80435 32.9209 7.68573 31.601 8.24627ZM49.1199 8.25451C47.6901 8.83486 47.31 10.6933 48.4 11.7743L49.0177 12.3867L75.1721 12.4451L101.327 12.5036L102.058 11.8556C102.664 11.3186 102.79 11.0467 102.79 10.2711C102.79 9.49606 102.664 9.22348 102.061 8.68944L101.333 8.04405L75.4508 8.05808C61.2158 8.06588 49.3669 8.15429 49.1199 8.25451ZM55.5022 25.812C54.2538 26.9179 54.6797 28.8909 56.28 29.4144C58.5868 30.1694 60.248 27.2907 58.3971 25.7463C57.4834 24.984 56.4091 25.0085 55.5022 25.812ZM82.0487 26.6164C80.5434 27.4435 80.5929 29.799 82.13 30.4934C82.5563 30.686 85.2886 30.7595 92.0258 30.7595H101.333L102.061 30.1141C102.664 29.5801 102.79 29.3075 102.79 28.5325C102.79 27.7575 102.664 27.4849 102.061 26.9509L101.333 26.3055L91.9591 26.3133C84.6103 26.3195 82.4696 26.385 82.0487 26.6164ZM91.1204 35.424C89.7238 35.9908 89.3467 37.8984 90.4205 38.9641L91.0175 39.5562L96.162 39.6235L101.307 39.6905L102.048 39.0338C102.664 38.4879 102.79 38.2189 102.79 37.4406C102.79 36.6656 102.664 36.393 102.061 35.8589L101.333 35.2136L96.4511 35.2276C93.7662 35.2354 91.3675 35.3238 91.1204 35.424ZM54.6711 39.1979C52.1538 40.06 50.5861 42.2948 50.582 45.0271L50.5798 46.4893L49.6832 46.9889C48.7003 47.5367 46.3743 49.6982 45.8189 50.5799L45.4683 51.1367L44.2184 49.9668C42.6846 48.5308 42.0281 48.2505 40.994 48.5887C40.0543 48.8963 39.5294 49.6512 39.5294 50.6955C39.5294 51.3861 39.7937 51.7734 41.5643 53.6759C43.4936 55.749 43.5924 55.9033 43.4698 56.653L43.3404 57.4435L41.1007 57.5193C38.9681 57.5914 38.8349 57.6248 38.3192 58.2199C37.9693 58.6234 37.7775 59.1214 37.7775 59.6265C37.7775 61.3577 38.697 61.9376 41.4428 61.9376H43.3337L43.468 62.7585C43.5976 63.5498 43.5313 63.6522 41.6234 65.6078C39.2327 68.0579 38.9281 69.0307 40.1664 70.2586C41.2777 71.3606 42.3385 71.171 44.0969 69.5571L45.436 68.3278L45.7933 68.863C45.9901 69.1574 46.8112 70.0275 47.6182 70.7969C49.2234 72.3273 51.3935 73.5145 53.6029 74.0715C55.168 74.4659 58.3589 74.5127 60.0582 74.1661C62.2 73.7292 64.7926 72.3229 66.4964 70.6738C67.3477 69.8495 68.1519 68.975 68.2833 68.73C68.5077 68.3125 68.5976 68.3577 69.7237 69.456C71.4318 71.1216 72.6815 71.3632 73.8088 70.2453C74.2355 69.8221 74.3876 69.4402 74.3876 68.7908C74.3876 67.9835 74.2175 67.7359 72.3435 65.8115C70.9507 64.3816 70.3423 63.6014 70.4343 63.3636C70.5085 63.1719 70.5693 62.7723 70.5693 62.4761C70.5693 61.9486 70.6084 61.9376 72.4897 61.9376C75.2226 61.9376 76.1844 61.358 76.1844 59.7106C76.1844 58.0693 75.2204 57.4836 72.5191 57.4836H70.6284L70.5004 56.5372C70.3726 55.5927 70.3766 55.5862 72.3799 53.5608C74.222 51.6981 74.3876 51.4582 74.3876 50.6518C74.3876 49.2502 73.0573 48.1727 71.733 48.5017C71.4017 48.5841 70.5467 49.2036 69.8326 49.8784L68.5347 51.1057L68.1526 50.5643C67.3571 49.437 66.1651 48.2787 64.8263 47.3314L63.4398 46.3504L63.3372 44.5913C63.2496 43.0889 63.1294 42.6696 62.5153 41.7209C60.8798 39.1934 57.6844 38.1657 54.6711 39.1979ZM58.2982 43.6924C58.6237 43.9461 58.8901 44.347 58.8901 44.5832C58.8901 44.9734 58.7164 45.0124 56.9809 45.0124C55.2454 45.0124 55.0718 44.9734 55.0718 44.5832C55.0718 43.9755 56.1232 43.2308 56.9809 43.2308C57.3801 43.2308 57.9728 43.4386 58.2982 43.6924ZM60.9566 50.2846C62.8713 51.1841 64.345 52.6452 65.2521 54.5438C65.9632 56.0325 65.965 56.0448 65.965 59.7106C65.965 63.3765 65.9632 63.3888 65.2521 64.8775C64.345 66.776 62.8713 68.2372 60.9566 69.1367C59.5497 69.7974 59.2905 69.8435 56.9809 69.8435C54.6869 69.8435 54.4059 69.7945 53.0497 69.1572C52.2414 68.7772 51.109 67.9949 50.5138 67.4047C48.5359 65.4434 47.89 63.5493 47.89 59.7106C47.89 55.8891 48.5375 53.9763 50.4852 52.0451C52.3973 50.1492 54.2812 49.4548 57.3178 49.527C59.1888 49.5715 59.6369 49.6648 60.9566 50.2846ZM13.6328 79.0734C12.2032 79.6537 11.823 81.5119 12.9127 82.5931L13.5299 83.2056L19.0841 83.2766C23.9234 83.3387 24.7288 83.3002 25.3418 82.9773C26.8902 82.162 26.9364 80.118 25.4266 79.2337C24.8818 78.9146 24.0487 78.8649 19.4379 78.8769C16.4922 78.8847 13.8799 78.9731 13.6328 79.0734ZM99.1301 90.8331C104.888 96.5592 109.785 101.595 110.012 102.024C110.561 103.061 110.579 105.637 110.044 106.621C109.557 107.517 108.452 108.612 107.549 109.095C106.555 109.626 103.958 109.608 102.912 109.062C102.48 108.836 98.7665 105.336 94.6608 101.284L87.1957 93.9159L89.293 91.7898C90.4924 90.5741 91.4555 89.398 91.5426 89.043C91.7405 88.2357 91.1646 87.0224 90.4253 86.6884C89.0875 86.084 88.6105 86.3022 86.2562 88.5958L84.0378 90.7569L82.5817 89.3261C81.7808 88.539 81.1256 87.7932 81.1256 87.6685C81.1256 87.3696 88.1269 80.4218 88.4281 80.4218C88.5561 80.4218 93.372 85.107 99.1301 90.8331ZM13.6328 87.9814C12.203 88.5617 11.823 90.42 12.9127 91.5012L13.5302 92.1136L21.6673 92.1784C26.1425 92.214 30.0402 92.1851 30.3286 92.1138C30.6172 92.0426 31.0972 91.7232 31.3954 91.4041C32.3615 90.3705 31.9985 88.6978 30.6612 88.0197C30.0813 87.7257 14.3502 87.6903 13.6328 87.9814ZM37.3283 88.0544C36.4829 88.4711 35.9077 89.7784 36.2158 90.5821C36.575 91.519 37.0718 91.9762 37.897 92.1296C40.3889 92.5931 41.4699 89.1728 39.1961 88.0197C38.5643 87.6994 38.0279 87.7095 37.3283 88.0544Z" fill="#199AE2"/>
</svg>
