<svg width="124" height="111" viewBox="0 0 124 111" fill="none" xmlns="http://www.w3.org/2000/svg">
<path fill-rule="evenodd" clip-rule="evenodd" d="M57.0659 0.269715C49.7896 1.36697 43.6772 4.50309 38.2675 9.9146C25.0772 23.1099 25.506 44.5117 39.2215 57.5508C49.3432 67.174 63.8324 69.2894 76.6044 63.0093C79.7033 61.4856 81.8471 59.8544 85.1703 56.4939C89.9391 51.6707 92.3877 47.4816 93.9407 41.4896C95.0369 37.2601 95.0297 29.2786 93.9258 24.9981C93.033 21.5341 89.7396 14.4205 88.7426 13.8007C86.8815 12.6453 89.3505 12.4077 103.228 12.4077C115.355 12.4077 118.486 12.5605 119.348 13.1936C120.384 13.9547 120.418 14.9173 120.418 43.5191V73.0586L112.541 73.2125C106.183 73.3366 104.604 73.5249 104.351 74.1885C104.178 74.641 104.343 75.3821 104.717 75.8352C105.259 76.4916 106.949 76.6588 113.045 76.6588H120.693V81.4035C120.693 85.9215 120.16 88.0745 118.82 88.9746C118.486 89.1984 92.903 89.385 61.9675 89.39C14.2776 89.3972 5.55906 89.2787 4.65193 88.6129C3.74094 87.9438 3.55411 86.9994 3.39264 82.2432L3.20361 76.6588H50.3076C91.3263 76.6588 97.4998 76.5525 98.0917 75.8352C98.4659 75.3821 98.6285 74.6355 98.4532 74.1763C98.1733 73.443 92.386 73.3244 50.8587 73.2004L3.58222 73.0586V43.5916C3.58222 20.1798 3.72937 13.9763 4.29756 13.4047C4.82332 12.8751 8.25068 12.6115 17.2487 12.4077L29.4844 12.1307V10.746V9.36126L17.2151 9.21226C3.472 9.04499 2.48496 9.25048 0.901066 12.6054C0.0953422 14.3114 0 18.3703 0 50.903C0 83.4357 0.0953422 87.4946 0.901066 89.2006C2.5555 92.705 2.67124 92.7216 25.5688 92.7216H46.2322L46.4002 99.9006L46.5689 107.079L43.3195 107.24C40.8924 107.359 39.9164 107.653 39.4618 108.402C38.9757 109.202 39.0683 109.563 39.923 110.202C40.8109 110.864 44.5733 111 62.038 111C80.5669 111 83.1693 110.895 83.8074 110.123C85.118 108.535 83.7512 107.42 80.2671 107.234L77.1555 107.067V99.8945V92.7216H98.1253C116.082 92.7216 119.335 92.597 120.764 91.8543C124.045 90.1494 124 90.7116 124 50.8659C124 18.3675 123.905 14.3114 123.099 12.6054C121.475 9.16629 120.983 9.08431 101.987 9.08431H84.8805L82.3828 7.16786C81.0089 6.11436 79.538 5.38544 79.1142 5.54939C77.2867 6.25394 77.894 7.54063 82.0174 11.702C86.7928 16.5214 89.3621 20.8755 90.6357 26.3064C93.1075 36.8458 89.965 47.2612 82.0489 54.7669C75.8566 60.6376 69.8935 63.011 61.4489 62.9667C35.3664 62.8293 22.3619 31.0028 40.7822 12.3877C44.7122 8.41632 49.3007 5.70393 54.3076 4.39342C58.3417 3.33771 65.4781 3.30946 69.3105 4.33471C71.8219 5.00658 72.319 5.00381 73.0073 4.31256C73.4444 3.87277 73.6615 3.14606 73.4901 2.6963C72.7764 0.826927 62.9749 -0.621493 57.0659 0.269715ZM41.3394 16.0007C40.2846 17.278 41.087 18.5004 42.9811 18.5004C44.2057 18.5004 44.8037 18.8394 45.179 19.7467C45.4622 20.4319 46.8207 27.0735 48.1974 34.5051C50.619 47.5774 51.1883 49.5183 52.603 49.5183C53.029 49.5183 53.1789 50.1214 53.0213 51.2015C52.5341 54.5376 56.0882 56.2907 58.4751 53.8918C59.3315 53.031 59.5514 52.3065 59.3155 51.1223L58.9964 49.5183H62.4695H65.9426L65.6968 51.2015C65.1281 55.0937 70.3069 56.654 71.6869 53.0067C72.0043 52.1664 71.9944 51.2835 71.6604 50.6559C71.2091 49.8079 71.3876 49.5975 72.8018 49.3133C74.1536 49.0414 74.4441 48.734 74.3013 47.7242C74.1261 46.4824 74.0396 46.4708 64.0738 46.3207L54.0238 46.17L53.6947 44.659C53.514 43.8281 53.2704 42.8372 53.1535 42.4562C52.9888 41.9189 55.3376 41.7638 63.6511 41.7638C73.2978 41.7638 74.4099 41.6674 74.8491 40.7945C75.1175 40.2611 76.0423 36.0033 76.9037 31.3324C78.0505 25.1117 78.3151 22.592 77.8907 21.9163C77.3787 21.1004 75.673 20.9758 63.2218 20.8451L49.1326 20.6977L48.7728 19.0516C48.0811 15.8866 43.1162 13.8489 41.3394 16.0007ZM106.475 20.2729C106.111 20.6385 105.813 22.0093 105.813 23.3193V25.701H103.401C98.6445 25.701 98.4813 29.1551 103.223 29.4691L105.755 29.6364L105.922 32.1815C106.233 36.9245 109.671 36.7882 109.671 32.0331V29.6392L112.233 29.4702C116.999 29.1562 116.862 25.701 112.084 25.701H109.671V23.3193C109.671 20.9885 108.954 19.6082 107.742 19.6082C107.409 19.6082 106.838 19.9073 106.475 20.2729ZM56.1059 26.9473L56.2739 29.5782H53.557C50.9546 29.5782 50.8257 29.5051 50.4955 27.8473C49.7549 24.1263 49.8662 23.9651 53.0444 24.149L55.9378 24.3163L56.1059 26.9473ZM65.0311 26.8088V29.5782H62.2755H59.52V26.8088V24.0393H62.2755H65.0311V26.8088ZM74.4 25.0779C74.4 25.6489 74.2451 26.8952 74.0555 27.8473C73.7265 29.5018 73.5926 29.5782 71.0244 29.5782C68.459 29.5782 68.3383 29.5095 68.3455 28.055C68.3626 24.5655 68.8035 24.0393 71.7089 24.0393C73.9729 24.0393 74.4 24.2044 74.4 25.0779ZM56.7644 35.671V38.4405H54.6289C52.6779 38.4405 52.4636 38.2909 52.1489 36.7096C51.4412 33.1547 51.5834 32.9016 54.2844 32.9016H56.7644V35.671ZM64.3725 35.5325C64.2127 38.0306 64.1174 38.1718 62.4855 38.3319C60.6332 38.513 60.0942 37.6384 60.0788 34.4248C60.0716 33.0123 60.2337 32.9016 62.3059 32.9016H64.5406L64.3725 35.5325ZM72.7467 33.9401C72.7467 34.5112 72.5918 35.7574 72.4022 36.7096C72.0875 38.2909 71.8731 38.4405 69.9222 38.4405H67.7867V36.0405C67.7867 34.72 67.952 33.4737 68.1542 33.271C68.3559 33.0677 69.472 32.9016 70.6342 32.9016C72.3322 32.9016 72.7467 33.1054 72.7467 33.9401ZM10.7858 57.0351C8.61938 59.213 10.2986 60.0422 16.8739 60.0422C23.2238 60.0422 24.2489 59.8057 24.2489 58.3406C24.2489 56.6911 22.4671 56.1649 16.8844 56.1649C12.8624 56.1649 11.4515 56.3666 10.7858 57.0351ZM10.529 65.2338C9.68192 66.2596 10.3245 67.7401 11.7717 68.0974C12.4204 68.2575 17.3881 68.3178 22.8116 68.2314C31.3053 68.0952 32.7525 67.9456 33.2507 67.1508C33.6707 66.4817 33.6304 65.9865 33.1052 65.3506C32.4902 64.6057 30.779 64.4733 21.7689 64.4733C13.4438 64.4733 11.0217 64.6372 10.529 65.2338ZM73.2978 99.9222V107.123H61.7244H50.1511V99.9222V92.7216H61.7244H73.2978V99.9222Z" fill="#199AE2"/>
</svg>
