<svg width="149" height="109" viewBox="0 0 149 109" fill="none" xmlns="http://www.w3.org/2000/svg">
<path fill-rule="evenodd" clip-rule="evenodd" d="M4.96325 1.10401C3.74296 1.70292 2.1273 3.18896 1.37214 4.40518C0.041039 6.55009 0 7.7663 0 44.7618V82.9068L1.55272 85.2221C4.81071 90.0801 3.20668 89.92 48.4676 89.9207C85.2097 89.922 89.0293 89.8198 88.6538 88.8441C88.4253 88.2514 88.2386 87.4848 88.2386 87.1408C88.2386 86.7681 71.9131 86.5153 47.8287 86.5153H7.41888L5.41949 84.5237L3.4201 82.5321V44.7571V6.98274L5.22318 5.18601L7.02694 3.38996H66.4881C107.774 3.38996 126.372 3.61481 127.33 4.12582C130.313 5.7161 130.648 8.24665 130.648 29.2358C130.648 48.0719 130.709 49.0258 131.971 49.6983C132.699 50.0859 133.484 50.4035 133.716 50.4035C133.949 50.4035 134.046 40.6689 133.933 28.7704C133.703 4.75948 133.578 4.05292 129.075 1.31864C126.947 0.0254304 125.204 -0.0113723 67.034 0.00157345C13.5819 0.0131565 6.94485 0.131039 4.96325 1.10401ZM31.5963 12.6966C26.9579 15.3253 25.5741 16.8862 24.8976 20.2555L24.4674 22.4011L26.9579 21.1365C29.2795 19.9571 29.7364 19.9408 33.7058 20.8906C37.2962 21.7504 38.6601 21.7743 42.4092 21.0452C48.1475 19.9299 49.8199 20.0913 51.8843 21.9603C53.7893 23.6848 53.2188 22.2778 51.034 19.8631C50.2461 18.993 48.9841 17 48.2282 15.4343C45.4531 9.68091 38.838 8.5921 31.5963 12.6966ZM78.3018 15.6843C78.059 16.0754 78.2362 16.846 78.6951 17.3973C79.4031 18.2469 82.7657 18.3716 100.814 18.219L122.098 18.0391L122.316 16.506L122.535 14.973H100.639C86.1667 14.973 78.5932 15.2142 78.3018 15.6843ZM28.0421 25.1988C27.6378 25.951 27.2418 28.0973 27.1631 29.9683C27.0475 32.6984 26.7828 33.3689 25.8218 33.3696C25.1261 33.3696 24.637 33.869 24.6548 34.562C24.7061 36.6115 26.5537 41.0825 27.5865 41.6583C28.129 41.9608 28.7856 43.3364 29.0455 44.7162C29.995 49.7596 34.5683 53.8102 39.3127 53.8102C42.9414 53.8102 47.4819 49.4523 48.573 44.922C49.0203 43.0653 49.679 41.5458 50.0368 41.5458C50.9267 41.5458 52.6695 37.2274 52.6695 35.0219C52.6695 33.7695 52.3816 33.3335 51.7222 33.5862C50.9978 33.8629 50.705 32.9907 50.48 29.8906C50.0545 24.0364 49.2659 23.4688 43.5461 24.9003C39.3216 25.9571 38.667 25.9598 34.5731 24.9358C29.0168 23.5451 28.9286 23.5485 28.0421 25.1988ZM78.6623 34.3916C77.9817 35.2086 77.9879 35.6255 78.6917 36.4711C79.9667 38.0014 108.975 37.827 110.528 36.2803C111.308 35.5029 111.36 35.0498 110.751 34.3194C109.539 32.8647 79.8792 32.9315 78.6623 34.3916ZM112.935 52.1634C101.66 55.1832 93.4529 64.2684 91.5239 75.8664C89.1805 89.9514 98.7663 104.247 113.103 108.05C129.906 112.506 147.43 100.054 148.897 82.6145C150.554 62.9309 131.852 47.0955 112.935 52.1634ZM78.8525 53.212C78.4304 53.6324 78.2478 54.3989 78.4468 54.9154C78.7307 55.6519 80.8922 55.8536 88.4828 55.8509C97.7437 55.8475 98.2444 55.776 100.209 54.172L102.261 52.4966L90.9405 52.4721C83.4546 52.4557 79.36 52.7064 78.8525 53.212ZM28.9149 56.0601C28.248 56.8123 24.5926 58.887 20.7908 60.6701C12.3794 64.6152 10.274 66.8452 8.65559 73.5246C7.30876 79.0837 7.25335 80.5221 8.34504 81.6095C8.95792 82.22 16.5711 82.4272 38.3858 82.4272C54.4569 82.4272 68.0928 82.2411 68.6879 82.0136C70.7208 81.2368 69.4568 72.5666 66.5859 67.592C65.0961 65.0104 64.0229 64.2575 57.1184 60.9515C52.8351 58.9 48.878 56.5786 48.3246 55.7916L47.3191 54.3615L45.25 55.885C42.1021 58.2029 37.3502 58.3876 33.361 56.3462C30.1304 54.694 30.1256 54.6933 28.9149 56.0601ZM118.335 56.5357C118.335 58.3528 118.108 58.5797 116.283 58.5797C114.705 58.5797 114.231 58.2731 114.231 57.2511C114.231 55.9252 115.861 54.5516 117.48 54.512C117.979 54.5005 118.335 55.3433 118.335 56.5357ZM124.253 54.9031C125.098 55.1293 125.858 55.9953 126.039 56.9383C126.321 58.4094 126.116 58.5797 124.055 58.5797C121.956 58.5797 121.756 58.4012 121.756 56.5357C121.756 54.3792 121.911 54.2776 124.253 54.9031ZM110.811 57.0869C110.811 58.1532 109.084 59.7728 107.563 60.1319C105.095 60.7158 105.074 59.4014 107.529 57.9113C109.962 56.4335 110.811 56.2202 110.811 57.0869ZM132.529 57.8909C135.272 59.5568 135.459 60.818 132.871 60.202C130.33 59.597 130.183 59.488 129.768 57.9093C129.319 56.197 129.735 56.1943 132.529 57.8909ZM118.335 65.0526V68.1187H115.181H112.027L112.507 65.5691C113.157 62.1187 113.285 61.9865 115.982 61.9865C118.316 61.9865 118.335 62.0131 118.335 65.0526ZM127.245 63.7342C128.622 67.344 128.196 68.1187 124.834 68.1187H121.756V65.0526C121.756 61.9988 121.765 61.9865 124.167 61.9865C126.125 61.9865 126.702 62.3142 127.245 63.7342ZM109.042 65.9043C108.787 67.3099 108.542 68.4955 108.497 68.5391C108.453 68.5834 107.263 68.8273 105.852 69.0814C103.483 69.508 103.287 69.4208 103.287 67.9388C103.287 65.2332 105.043 63.7471 108.619 63.4282C109.275 63.3696 109.385 64.0128 109.042 65.9043ZM135.855 64.8972C136.283 65.3578 136.833 66.5816 137.077 67.6179C137.518 69.4978 137.513 69.5012 134.597 69.0562C132.989 68.811 131.64 68.5766 131.6 68.535C131.559 68.4934 131.341 67.2738 131.117 65.8253L130.708 63.1911L132.892 63.6258C134.093 63.865 135.426 64.4373 135.855 64.8972ZM99.5448 67.9415C99.1008 69.7042 98.1117 70.8101 96.9598 70.8339C96.1835 70.8496 96.3319 70.2268 97.6206 68.0533C99.1022 65.5548 100.162 65.4934 99.5448 67.9415ZM142.651 68.1821C143.253 69.341 143.613 70.4217 143.451 70.5825C142.886 71.1453 140.908 70.0101 140.908 69.1237C140.908 68.6324 140.721 67.7453 140.493 67.1525C139.733 65.1793 141.539 66.0412 142.651 68.1821ZM78.4571 72.4392C77.7122 74.3722 79.07 75.0058 83.5127 74.7973C87.4643 74.612 87.9185 74.4403 88.1155 73.0585C88.3241 71.595 88.1189 71.5255 83.5715 71.5255C80.2205 71.5255 78.704 71.796 78.4571 72.4392ZM118.335 74.9322V78.339H114.915H111.495V75.3867C111.495 73.7624 111.7 72.2293 111.952 71.9799C112.202 71.7299 113.741 71.5255 115.372 71.5255H118.335V74.9322ZM128.462 75.1026L128.671 78.339H125.213H121.756V74.8948V71.4505L125.005 71.6583L128.254 71.8661L128.462 75.1026ZM108.075 75.2729V78.339H104.956H101.836L102.049 75.8105C102.219 73.7808 102.598 73.19 103.971 72.8126C107.724 71.781 108.075 71.9915 108.075 75.2729ZM137.232 72.8882C137.873 72.8882 138.172 73.7555 138.172 75.6136V78.339H135.094H132.016V75.1878V72.0365L134.153 72.4623C135.329 72.6967 136.714 72.8882 137.232 72.8882ZM98.4989 76.295C98.4989 78.1121 98.2711 78.339 96.4468 78.339C94.1314 78.339 94.154 78.3772 95.0617 75.9986C96.0535 73.3999 98.4989 73.6111 98.4989 76.295ZM144.875 75.0685C145.327 75.5182 145.696 76.438 145.696 77.1126C145.696 78.0208 145.164 78.339 143.644 78.339C141.82 78.339 141.592 78.1121 141.592 76.295C141.592 74.781 141.912 74.2509 142.823 74.2509C143.501 74.2509 144.424 74.6188 144.875 75.0685ZM98.4989 84.0665C98.4989 86.0806 98.3108 86.3388 97.0782 86.0179C95.9284 85.7181 94.3948 83.4458 94.3948 82.0422C94.3948 81.8793 95.3182 81.7458 96.4468 81.7458C98.3252 81.7458 98.4989 81.942 98.4989 84.0665ZM108.075 84.8119C108.075 87.6491 107.944 87.878 106.32 87.878C103.288 87.878 101.919 86.704 101.919 84.1067C101.919 81.7628 101.942 81.7458 104.997 81.7458H108.075V84.8119ZM118.335 85.19V88.6343L115.086 88.4265L111.837 88.2187L111.629 84.9822L111.42 81.7458H114.878H118.335V85.19ZM128.596 85.1526V88.5593H125.176H121.756V85.1526V81.7458H125.176H128.596V85.1526ZM138.172 84.3915C138.172 87.1714 137.276 87.846 133.555 87.8684C132.186 87.8766 132.016 87.54 132.016 84.8119V81.7458H135.094H138.172V84.3915ZM145.686 82.9382C145.671 84.6334 144.903 85.5539 143.131 86.0002C141.76 86.3456 141.592 86.1344 141.592 84.0665C141.592 81.942 141.766 81.7458 143.644 81.7458C145.146 81.7458 145.694 82.0654 145.686 82.9382ZM98.7923 90.3111C99.9764 91.4905 100.254 94.0102 99.2007 94.0102C98.6063 94.0102 96.4468 90.5639 96.4468 89.6154C96.4468 88.8775 97.7369 89.2605 98.7923 90.3111ZM143.644 89.6154C143.644 90.5748 141.481 94.0102 140.877 94.0102C140.015 94.0102 140.847 90.444 141.868 89.7619C142.761 89.1658 143.644 89.0928 143.644 89.6154ZM108.822 94.248L109.247 96.8508L106.78 96.3915C103.777 95.8328 103.995 96.0495 103.526 93.168L103.139 90.7942L105.768 91.2193C108.181 91.6104 108.432 91.8591 108.822 94.248ZM136.775 93.4303C136.033 96.0052 136.273 95.7892 133.51 96.3792L131.242 96.8637L131.458 94.2446C131.657 91.8326 131.863 91.5955 134.068 91.2459C137.251 90.7417 137.493 90.9366 136.775 93.4303ZM118.335 95.0322C118.335 98.0861 118.326 98.0983 115.924 98.0983C113.966 98.0983 113.389 97.7706 112.846 96.3506C111.469 92.7408 111.895 91.9661 115.257 91.9661H118.335V95.0322ZM127.912 93.9543C127.912 97.3802 127.306 98.0983 124.418 98.0983H121.756V95.0322V91.9661H124.834C127.778 91.9661 127.912 92.052 127.912 93.9543ZM58.8257 95.3729C58.8257 96.66 59.282 96.7356 67.034 96.7356C74.786 96.7356 75.2422 96.66 75.2422 95.3729C75.2422 94.0858 74.786 94.0102 67.034 94.0102C59.282 94.0102 58.8257 94.0858 58.8257 95.3729ZM134.435 100.784C134.186 101.186 133.054 101.993 131.919 102.577C129.902 103.616 129.862 103.605 130.081 102.066C130.243 100.933 130.881 100.383 132.358 100.104C134.721 99.6566 135.065 99.769 134.435 100.784ZM109.045 100.556C109.64 100.784 110.127 101.558 110.127 102.277C110.127 103.504 110.003 103.521 108.118 102.55C107.014 101.981 105.918 101.206 105.684 100.828C105.216 100.074 107.335 99.9025 109.045 100.556ZM34.8679 102.571C33.9609 104.948 34.0238 105.719 35.266 107.485L36.3304 109H66.6817C93.3619 109 97.163 108.871 98.1083 107.93C99.674 106.369 99.4504 105.438 96.927 103.001L94.6718 100.824H65.1037H35.5348L34.8679 102.571ZM118.335 103.623C118.335 105.591 118.203 105.708 116.461 105.272C112.823 104.363 112.429 101.505 115.941 101.505C118.164 101.505 118.335 101.657 118.335 103.623ZM126.544 102.885C126.544 103.739 125.875 104.517 124.789 104.929C122.128 105.937 121.756 105.768 121.756 103.549C121.756 101.667 121.946 101.505 124.15 101.505C126.098 101.505 126.544 101.762 126.544 102.885Z" fill="#199AE2"/>
</svg>
