<svg width="122" height="135" viewBox="0 0 122 135" fill="none" xmlns="http://www.w3.org/2000/svg">
<rect x="2.5" y="2.5" width="116.817" height="98.9226" rx="7.5" stroke="#199AE2" stroke-width="5"/>
<rect x="10.7583" y="9.38229" width="100.299" height="85.158" stroke="#199AE2" stroke-width="5"/>
<mask id="path-3-inside-1_6_41" fill="white">
<path fill-rule="evenodd" clip-rule="evenodd" d="M91.5346 94.4122C100.743 91.2656 107.364 82.5381 107.364 72.2641C107.364 59.3407 96.8876 48.8643 83.9642 48.8643C71.0409 48.8643 60.5645 59.3407 60.5645 72.2641C60.5645 82.538 67.1856 91.2654 76.3936 94.4121V126.634C76.3936 130.815 79.783 134.205 83.9641 134.205C88.1452 134.205 91.5346 130.815 91.5346 126.634V94.4122ZM83.9642 86.5472C76.0759 86.5472 69.6811 80.1524 69.6811 72.2641C69.6811 64.3757 76.0759 57.981 83.9642 57.981C91.8526 57.981 98.2473 64.3757 98.2473 72.2641C98.2473 80.1524 91.8526 86.5472 83.9642 86.5472Z"/>
</mask>
<path d="M91.5346 94.4122L89.9178 89.6808L86.5346 90.8369V94.4122H91.5346ZM76.3936 94.4121H81.3936V90.8368L78.0105 89.6807L76.3936 94.4121ZM102.364 72.2641C102.364 80.335 97.1645 87.2045 89.9178 89.6808L93.1514 99.1435C104.321 95.3267 112.364 84.7411 112.364 72.2641H102.364ZM83.9642 53.8643C94.1262 53.8643 102.364 62.1022 102.364 72.2641H112.364C112.364 56.5793 99.649 43.8643 83.9642 43.8643V53.8643ZM65.5645 72.2641C65.5645 62.1022 73.8023 53.8643 83.9642 53.8643V43.8643C68.2795 43.8643 55.5645 56.5793 55.5645 72.2641H65.5645ZM78.0105 89.6807C70.7639 87.2043 65.5645 80.3349 65.5645 72.2641H55.5645C55.5645 84.741 63.6073 95.3265 74.7767 99.1434L78.0105 89.6807ZM81.3936 126.634V94.4121H71.3936V126.634H81.3936ZM83.9641 129.205C82.5445 129.205 81.3936 128.054 81.3936 126.634H71.3936C71.3936 133.577 77.0216 139.205 83.9641 139.205V129.205ZM86.5346 126.634C86.5346 128.054 85.3838 129.205 83.9641 129.205V139.205C90.9066 139.205 96.5346 133.577 96.5346 126.634H86.5346ZM86.5346 94.4122V126.634H96.5346V94.4122H86.5346ZM64.6811 72.2641C64.6811 82.9138 73.3145 91.5472 83.9642 91.5472V81.5472C78.8373 81.5472 74.6811 77.391 74.6811 72.2641H64.6811ZM83.9642 52.981C73.3145 52.981 64.6811 61.6143 64.6811 72.2641H74.6811C74.6811 67.1372 78.8373 62.981 83.9642 62.981V52.981ZM103.247 72.2641C103.247 61.6143 94.614 52.981 83.9642 52.981V62.981C89.0912 62.981 93.2473 67.1372 93.2473 72.2641H103.247ZM83.9642 91.5472C94.614 91.5472 103.247 82.9138 103.247 72.2641H93.2473C93.2473 77.391 89.0912 81.5472 83.9642 81.5472V91.5472Z" fill="#199AE2" mask="url(#path-3-inside-1_6_41)"/>
<path d="M63.3172 37.8526C63.3172 50.776 52.8407 61.2524 39.9174 61.2524C26.994 61.2524 16.5176 50.776 16.5176 37.8526C16.5176 24.9293 26.994 14.4528 39.9174 14.4528C52.8407 14.4528 63.3172 24.9293 63.3172 37.8526ZM20.5082 37.8526C20.5082 48.572 29.198 57.2618 39.9174 57.2618C50.6368 57.2618 59.3265 48.572 59.3265 37.8526C59.3265 27.1332 50.6368 18.4434 39.9174 18.4434C29.198 18.4434 20.5082 27.1332 20.5082 37.8526Z" fill="#199AE2"/>
<rect x="36.4761" y="24.7762" width="3.44115" height="16.5175" fill="#199AE2"/>
<rect x="48.1758" y="37.8526" width="3.44115" height="11.6999" transform="rotate(90 48.1758 37.8526)" fill="#199AE2"/>
<path d="M10.3232 58.1554H25.1202L31.3142 79.1463L41.2936 58.1554H59.1875L74.3285 37.8526L83.2755 58.1554H111.837" stroke="#199AE2" stroke-width="4"/>
</svg>
