<?xml version="1.0" encoding="UTF-8"?>
<svg id="Layer_2" data-name="Layer 2" xmlns="http://www.w3.org/2000/svg" viewBox="0 0 342.11 226.69">
  <defs>
    <style>
      .cls-1 {
        fill: #fff;
        stroke: #30c4f3;
        stroke-miterlimit: 10;
      }
    </style>
  </defs>
  <g id="Layer_2-2" data-name="Layer 2">
    <polygon class="cls-1" points="256.33 182.86 256.33 225.88 171.05 182.86 213.69 161.35 256.33 182.86"/>
    <polygon class="cls-1" points="341.61 139.83 256.33 182.85 256.33 225.88 341.61 182.85 341.61 139.83"/>
    <polygon class="cls-1" points="341.61 182.85 256.33 139.83 256.33 96.81 341.61 139.83 341.61 182.85"/>
    <polygon class="cls-1" points="85.78 43.83 171.05 86.85 171.05 129.88 85.78 86.85 85.78 43.83"/>
    <polygon class="cls-1" points="171.05 .81 85.78 43.83 85.78 86.85 171.05 43.83 171.05 43.2 171.05 .81"/>
    <polygon class="cls-1" points="256.33 86.85 171.05 43.83 171.05 .81 256.33 43.83 256.33 86.85"/>
    <polygon class="cls-1" points="85.78 96.81 .5 139.83 .5 182.85 85.78 139.83 85.78 139.2 85.78 96.81"/>
    <polygon class="cls-1" points="171.05 139.84 128.42 161.35 85.78 139.84 85.78 96.82 171.05 139.84"/>
    <polygon class="cls-1" points="85.78 182.86 85.78 225.88 .5 182.86 .5 139.84 85.78 182.86"/>
    <polygon class="cls-1" points="256.33 96.82 256.33 139.84 213.69 161.35 171.05 182.86 85.78 225.88 85.78 182.86 128.42 161.35 171.05 139.84 256.33 96.82"/>
    <polygon class="cls-1" points="256.33 43.83 171.05 86.85 171.05 129.88 256.33 86.85 256.33 43.83"/>
  </g>
</svg>