<svg width="125" height="134" viewBox="0 0 125 134" fill="none" xmlns="http://www.w3.org/2000/svg">
<path fill-rule="evenodd" clip-rule="evenodd" d="M52.155 0.274661C52.5519 0.71306 52.5056 1.53096 52.0661 1.83842C51.7476 2.06152 50.3084 2.09105 39.7568 2.09104C26.4022 2.09104 26.9372 2.04789 25.5869 3.23571C25.191 3.58406 24.6937 4.21749 24.4822 4.64323L24.0974 5.41716L24.0505 14.4433C24.0053 23.1181 23.9912 23.4803 23.6905 23.7523C23.2878 24.1166 22.6312 24.114 22.225 23.7465C21.9148 23.466 21.9057 23.2013 21.9057 14.5075C21.9057 6.80861 21.9417 5.43403 22.1635 4.676C22.6812 2.90683 24.0779 1.28904 25.7736 0.494507L26.695 0.0629231L39.2889 0.0184681C51.3728 -0.0240403 51.8937 -0.0136565 52.155 0.274661ZM96.9103 6.80911C97.891 7.25221 98.6552 8.00521 99.1203 8.98666C99.5015 9.79126 99.5048 9.84415 99.5062 15.4361L99.5079 21.0743L64.2689 21.0743L29.0298 21.0743L29.08 15.4361L29.1302 9.7979L29.5974 8.84696C30.081 7.86259 30.9623 7.07762 32.0226 6.68693C32.4114 6.54366 40.4239 6.49434 64.3596 6.48769C96.0221 6.47893 96.1833 6.48055 96.9103 6.80911ZM58.1092 12.1505C57.9306 12.329 57.7845 12.6576 57.7845 12.8806C57.7845 13.1037 57.9306 13.4323 58.1092 13.6108C58.4221 13.9234 58.6503 13.9353 64.3478 13.9353L70.2618 13.9353L70.5981 13.5077C70.7832 13.2726 70.9347 12.9905 70.9347 12.8806C70.9347 12.7708 70.7832 12.4887 70.5981 12.2536L70.2618 11.826L64.3478 11.826C58.6503 11.826 58.4221 11.8379 58.1092 12.1505ZM99.5079 28.2676L99.5079 33.3517L85.2799 33.348L71.0521 33.3442L70.7498 33.7172C70.4614 34.0732 70.4476 34.6218 70.4476 45.7615L70.4476 57.4329L70.8462 57.8311L71.2446 58.2294L85.3763 58.2294L99.5079 58.2294L99.5079 79.7278L99.5079 101.226L64.319 101.185L29.1302 101.144L29.0839 99.4814L29.0376 97.8183L38.6811 97.8183C48.1912 97.8183 48.3305 97.8136 48.7523 97.482L49.1801 97.1458L49.1801 85.2573C49.1801 73.3783 49.1798 73.3686 48.8385 73.0599C48.5117 72.7642 48.0734 72.7488 38.773 72.7065L29.049 72.6622L29.049 47.9228L29.049 23.1835L64.2784 23.1835L99.5079 23.1835L99.5079 28.2676ZM33.27 33.5675C32.9513 33.886 32.9453 34.1083 32.9453 45.7362C32.9453 57.3641 32.9513 57.5864 33.27 57.9049C33.5879 58.2226 33.8095 58.2294 43.782 58.227C49.3851 58.2255 54.0497 58.1708 54.1479 58.1053C54.6803 57.75 54.6999 57.309 54.6999 45.6877C54.6999 34.2084 54.6967 34.094 54.3634 33.6705L54.027 33.243L43.8108 33.243C33.8111 33.243 33.5879 33.2498 33.27 33.5675ZM52.5894 45.7362L52.5894 56.1202L43.8226 56.1202L35.0558 56.1202L35.0559 45.7362L35.0559 35.3522L43.8226 35.3522L52.5894 35.3522L52.5894 45.7362ZM114.567 45.757L114.525 55.9996L94.3127 55.9894C83.196 55.9839 73.7535 55.9745 73.3293 55.9686L72.5582 55.9579L72.5582 45.7362L72.5582 35.5145L93.5833 35.5145L114.609 35.5145L114.567 45.757ZM96.6595 39.8068C96.4403 40.0258 96.2609 40.2861 96.2609 40.3852C96.2609 40.6352 96.5971 41.2497 96.8129 41.3936C96.9111 41.4591 100.037 41.5138 103.76 41.5153L110.529 41.5177L110.782 41.157C111.127 40.6653 111.099 40.122 110.71 39.733C110.396 39.419 110.169 39.4085 103.722 39.4085L97.0579 39.4085L96.6595 39.8068ZM82.7583 45.0312C82.3174 45.43 82.3802 46.1357 82.8926 46.5384C83.3231 46.8768 83.3449 46.8773 96.8374 46.8341C109.866 46.7924 110.363 46.7798 110.693 46.4817C111.103 46.1112 111.136 45.4677 110.766 45.0595C110.51 44.7765 109.863 44.7627 96.7762 44.7627C84.2365 44.7627 83.0296 44.7857 82.7583 45.0312ZM82.7583 49.412C82.3656 49.7671 82.3807 50.5231 82.7888 50.931C83.1125 51.2545 83.2656 51.2576 96.8449 51.2149C110.221 51.1727 110.58 51.1635 110.804 50.8566C111.105 50.446 111.096 49.9529 110.782 49.5041L110.529 49.1434L96.7921 49.1434C84.2376 49.1434 83.0296 49.1665 82.7583 49.412ZM124.199 62.5821C124.997 62.8274 125.254 63.8129 124.672 64.3949C124.355 64.712 124.131 64.7194 114.924 64.7194L105.5 64.7194L105.086 64.3057C104.764 63.9836 104.696 63.7946 104.779 63.4539C105.01 62.5144 104.543 62.5579 114.653 62.5337C119.777 62.5216 124.073 62.5433 124.199 62.5821ZM85.5822 63.1873C85.3336 63.3612 85.2213 63.6059 85.2213 63.9734C85.2213 64.8526 85.5503 65.0024 87.6565 65.082C89.1014 65.1366 89.6852 65.2286 90.2386 65.4891C90.632 65.6743 91.0703 65.7847 91.2127 65.7346C92.0535 65.439 92.311 64.4978 91.7056 63.934C91.5217 63.7628 90.9189 63.4711 90.3662 63.2856C89.0694 62.8508 86.1486 62.7907 85.5822 63.1873ZM76.9777 63.1873C76.5399 63.4938 76.4915 64.3122 76.8855 64.7472C77.1092 64.9943 77.4078 65.0439 78.6714 65.0439C80.3492 65.0439 80.8379 64.806 80.8379 63.9893C80.8379 63.1866 80.3424 62.9347 78.7636 62.9347C77.7366 62.9347 77.2377 63.0052 76.9777 63.1873ZM68.3733 63.1873C67.9355 63.4938 67.8871 64.3122 68.2811 64.7471C68.5048 64.9943 68.8034 65.0439 70.0669 65.0439C71.3677 65.0439 71.6303 64.9977 71.9088 64.7194C72.3236 64.3049 72.3202 63.8997 71.8969 63.3622C71.5795 62.9588 71.4807 62.9347 70.1473 62.9347C69.131 62.9347 68.6327 63.0056 68.3733 63.1873ZM59.7304 63.2283C59.2895 63.5853 59.2551 64.2815 59.6564 64.7248C59.9045 64.9988 60.16 65.0439 61.4625 65.0439C62.7632 65.0439 63.0259 64.9977 63.3043 64.7194C63.7574 64.2666 63.7154 63.675 63.2012 63.271C62.6111 62.807 60.2863 62.7786 59.7304 63.2283ZM54.3324 66.058C53.9788 66.3263 53.4526 67.5914 53.3161 68.5013C53.2242 69.1141 53.261 69.2846 53.5474 69.5708C53.9551 69.9782 54.7351 70.0162 55.0454 69.6438C55.2605 69.3854 55.7659 67.8747 55.9485 66.944C56.1156 66.0932 55.0533 65.5107 54.3324 66.058ZM124.672 68.1267C124.85 68.3051 124.996 68.6337 124.996 68.8568C124.996 69.0799 124.85 69.4084 124.672 69.5869C124.355 69.9039 124.131 69.9114 114.862 69.9114L105.376 69.9114L105.04 69.4839C104.619 68.9491 104.619 68.7645 105.04 68.2297L105.376 67.8022L114.862 67.8022C124.131 67.8022 124.355 67.8096 124.672 68.1267ZM93.1485 69.3687C92.8993 69.594 92.8516 69.8929 92.8516 71.2253C92.8516 72.6826 92.8813 72.8343 93.2125 73.066C93.7426 73.4371 94.2449 73.3749 94.6256 72.8911C94.9035 72.5382 94.9621 72.2334 94.9621 71.1426C94.9621 69.572 94.7285 69.1001 93.951 69.1001C93.6729 69.1001 93.3119 69.221 93.1485 69.3687ZM124.569 73.3305C125.146 73.784 125.144 74.4774 124.564 74.9332C124.134 75.2707 124.062 75.2729 114.748 75.2288C106.163 75.1882 105.34 75.161 105.088 74.9084C104.684 74.5044 104.733 73.6563 105.181 73.2933C105.531 73.0104 106.054 72.9941 114.846 72.9941C124.004 72.9941 124.147 72.9992 124.569 73.3305ZM53.5942 74.623C53.281 74.9145 53.2388 75.122 53.2388 76.3715C53.2388 78.0451 53.4588 78.5106 54.2499 78.5106C55.1749 78.5106 55.3493 78.1735 55.3493 76.3855C55.3493 74.9282 55.3196 74.7765 54.9884 74.5448C54.4971 74.2008 54.0187 74.2276 53.5942 74.623ZM47.0696 85.3251L47.0696 95.7091L36.1749 95.7091C27.5263 95.7091 25.2962 95.6672 25.3572 95.5063C25.3994 95.3948 26.1121 93.3094 26.9409 90.8721L28.448 86.4407L28.1233 86.0046C27.9449 85.7648 27.6525 85.5466 27.4736 85.5198C27.2947 85.4929 26.0082 85.8763 24.6146 86.3716C23.221 86.8668 22.005 87.2721 21.9122 87.2721C21.7982 87.2721 21.7433 85.2662 21.7433 81.1066L21.7433 74.9411L34.4065 74.9411L47.0696 74.9411L47.0696 85.3251ZM93.1485 77.9679C92.8993 78.1933 92.8516 78.4921 92.8516 79.8245C92.8516 81.2819 92.8813 81.4336 93.2125 81.6652C93.721 82.0212 94.103 81.98 94.5636 81.5196C94.9246 81.1589 94.9621 80.9906 94.9621 79.7348C94.9621 78.5647 94.9115 78.2978 94.6374 78.0239C94.2429 77.6296 93.5512 77.6037 93.1485 77.9679ZM124.728 78.6451C125.092 79.0475 125.066 79.7389 124.672 80.1331C124.355 80.4502 124.131 80.4576 114.924 80.4576L105.5 80.4576L105.102 80.0593C104.882 79.8403 104.703 79.58 104.703 79.4809C104.703 79.2309 105.039 78.6164 105.255 78.4725C105.353 78.407 109.714 78.3523 114.946 78.3508C123.958 78.3485 124.473 78.364 124.728 78.6451ZM53.5942 83.2222C53.2804 83.5144 53.2388 83.7206 53.2388 84.9889C53.2388 86.6225 53.4903 87.1504 54.2687 87.1504C55.1389 87.1504 55.3493 86.7428 55.3493 85.0566C55.3493 83.7566 55.303 83.4941 55.0246 83.2159C54.6083 82.7999 54.045 82.8023 53.5942 83.2222ZM124.672 83.8649C125.091 84.2838 125.088 85.0293 124.667 85.4109C124.356 85.692 123.865 85.71 116.265 85.72C107.659 85.7314 105.3 85.6655 105.047 85.4062C104.96 85.317 104.84 85.0469 104.78 84.8059C104.696 84.4645 104.763 84.2767 105.086 83.9541L105.5 83.5404L114.924 83.5404C124.131 83.5404 124.355 83.5478 124.672 83.8649ZM93.1485 86.5671C92.8993 86.7925 92.8516 87.0914 92.8516 88.4238C92.8516 89.8811 92.8813 90.0328 93.2125 90.2645C93.7483 90.6396 94.2458 90.5723 94.6404 90.0709C94.9519 89.6752 94.9852 89.4635 94.9361 88.1919C94.8902 86.9999 94.828 86.7203 94.5658 86.5288C94.1441 86.2207 93.5127 86.2378 93.1485 86.5671ZM25.4773 88.5596C25.4773 88.643 25.3975 88.9168 25.2997 89.168C25.202 89.4192 24.142 92.5032 22.9442 96.0216C21.7464 99.5398 20.728 102.457 20.6811 102.504C20.6342 102.551 19.6487 101.644 18.4914 100.49L16.3868 98.3919L14.9377 99.8336L13.4885 101.275L13.0012 100.788L12.514 100.302L13.8818 98.9419C14.634 98.1939 15.2494 97.5281 15.2494 97.462C15.2494 97.396 14.333 96.4494 13.2129 95.3585L11.1765 93.3748L11.7112 93.1696C12.9537 92.6929 25.2208 88.4079 25.3432 88.4079C25.4169 88.4079 25.4773 88.4762 25.4773 88.5596ZM124.564 89.0648C125.107 89.4917 125.141 90.2074 124.641 90.673C124.292 90.998 124.121 91.0039 114.893 91.0039L105.5 91.0039L105.086 90.5901C104.764 90.2681 104.696 90.079 104.779 89.7383C105.017 88.7692 104.52 88.8175 114.748 88.7692C124.062 88.7251 124.134 88.7273 124.564 89.0648ZM54.3752 91.6528C53.9187 92.1091 53.971 92.6956 54.5419 93.5252C55.5789 95.0312 56.6818 95.4362 57.3392 94.5522C57.7616 93.984 57.6519 93.7292 56.4219 92.4235C55.3167 91.25 54.9256 91.1028 54.3752 91.6528ZM89.6047 93.8432C89.2251 93.9771 88.7087 94.0866 88.457 94.0866C87.9401 94.0866 87.4941 94.5918 87.4941 95.1774C87.4941 95.7235 88.051 96.1958 88.6947 96.1958C89.5447 96.1958 91.3614 95.5796 91.5502 95.2274C91.8048 94.7518 91.747 94.2806 91.3905 93.9243C91.0028 93.5369 90.5339 93.5156 89.6047 93.8432ZM79.2144 94.4111C79.0358 94.5896 78.8897 94.9181 78.8897 95.1412C78.8897 95.9439 79.3852 96.1958 80.964 96.1958C82.6747 96.1958 83.1107 95.9817 83.1107 95.1412C83.1107 94.3008 82.6747 94.0866 80.964 94.0866C79.7555 94.0866 79.4897 94.1359 79.2144 94.4111ZM70.61 94.4111C70.4314 94.5896 70.2853 94.9181 70.2853 95.1412C70.2853 95.9495 70.7782 96.1958 72.3958 96.1958C74.0274 96.1958 74.5063 95.9502 74.5063 95.1135C74.5063 94.274 74.1315 94.0866 72.4518 94.0866C71.1511 94.0866 70.8884 94.1328 70.61 94.4111ZM62.0056 94.4111C61.827 94.5896 61.6809 94.9181 61.6809 95.1412C61.6809 95.9495 62.1737 96.1958 63.7914 96.1958C65.4439 96.1958 65.9019 95.9513 65.9019 95.0693C65.9019 94.3087 65.4168 94.0866 63.7552 94.0866C62.5467 94.0866 62.2809 94.1359 62.0056 94.4111ZM99.5079 110.901C99.5079 116.277 99.452 118.654 99.3148 119.111C99.0656 119.943 97.9073 121.226 97.0178 121.656L96.3208 121.994L64.3268 121.994L32.333 121.994L31.465 121.54C30.9696 121.282 30.3715 120.791 30.0708 120.397C29.0776 119.096 29.049 118.825 29.049 110.688L29.049 103.335L64.2784 103.335L99.5079 103.335L99.5079 110.901ZM62.0056 108.175C58.3438 110.081 58.3896 115.319 62.0838 117.137C64.6707 118.409 67.6775 117.346 68.9274 114.716C70.2546 111.923 68.5888 108.514 65.496 107.696C64.5818 107.454 62.9645 107.676 62.0056 108.175ZM65.0996 109.816C65.8517 110.044 66.2305 110.32 66.7187 110.993C67.3177 111.82 67.3828 113.05 66.8797 114.036C65.6994 116.348 62.1987 115.919 61.5141 113.378C61.2328 112.334 61.449 111.525 62.2252 110.719C63.0943 109.818 64.0815 109.508 65.0996 109.816ZM103.33 127.584C103.854 128.107 103.843 128.695 103.301 129.121L102.873 129.457L68.4668 129.457C33.6553 129.457 33.5999 129.456 33.2319 128.905C32.9689 128.512 33.1132 127.854 33.5355 127.522L33.9632 127.186L68.4475 127.186L102.932 127.186L103.33 127.584ZM114.045 132.127C114.506 132.587 114.547 132.969 114.191 133.477L113.938 133.838L100.904 133.838C88.4822 133.838 87.8565 133.824 87.6005 133.541C87.2065 133.106 87.2548 132.288 87.6927 131.981C88.0117 131.758 89.5309 131.729 100.85 131.729L113.647 131.729L114.045 132.127ZM66.4774 132.289C66.6966 132.508 66.876 132.768 66.876 132.868C66.876 133.118 66.5398 133.732 66.324 133.876C66.2258 133.941 54.0841 133.996 39.3426 133.998C13.581 134 12.5295 133.988 12.2712 133.703C11.8772 133.268 11.9255 132.45 12.3634 132.143C12.6863 131.917 15.5191 131.891 39.4016 131.891L66.079 131.891L66.4774 132.289ZM8.41898 132.318C8.84222 132.856 8.84563 133.261 8.43084 133.675C8.12464 133.982 7.88974 134 4.31614 134C0.850666 134 0.503078 133.975 0.25745 133.703C-0.107022 133.301 -0.081051 132.61 0.31345 132.215C0.619312 131.91 0.854557 131.891 4.36029 131.891L8.08259 131.891L8.41898 132.318Z" fill="#199AE2"/>
</svg>
